<svg width="18" height="17" viewBox="0 0 18 17" fill="none" xmlns="http://www.w3.org/2000/svg">
<path d="M6.10273 0.957031H2.53086C1.57461 0.957031 0.787109 1.74453 0.787109 2.70078V6.27266C0.787109 7.22891 1.57461 8.01641 2.53086 8.01641H6.10273C7.05898 8.01641 7.84648 7.22891 7.84648 6.27266V2.72891C7.87461 1.74453 7.08711 0.957031 6.10273 0.957031ZM6.60898 6.30078C6.60898 6.58203 6.38398 6.80703 6.10273 6.80703H2.53086C2.24961 6.80703 2.02461 6.58203 2.02461 6.30078V2.72891C2.02461 2.44766 2.24961 2.22266 2.53086 2.22266H6.10273C6.38398 2.22266 6.60898 2.44766 6.60898 2.72891V6.30078Z" fill="#DEE4EE"/>
<path d="M15.468 0.957031H11.8961C10.9398 0.957031 10.1523 1.74453 10.1523 2.70078V6.27266C10.1523 7.22891 10.9398 8.01641 11.8961 8.01641H15.468C16.4242 8.01641 17.2117 7.22891 17.2117 6.27266V2.72891C17.2117 1.74453 16.4242 0.957031 15.468 0.957031ZM15.9742 6.30078C15.9742 6.58203 15.7492 6.80703 15.468 6.80703H11.8961C11.6148 6.80703 11.3898 6.58203 11.3898 6.30078V2.72891C11.3898 2.44766 11.6148 2.22266 11.8961 2.22266H15.468C15.7492 2.22266 15.9742 2.44766 15.9742 2.72891V6.30078Z" fill="#DEE4EE"/>
<path d="M6.10273 9.92969H2.53086C1.57461 9.92969 0.787109 10.7172 0.787109 11.6734V15.2453C0.787109 16.2016 1.57461 16.9891 2.53086 16.9891H6.10273C7.05898 16.9891 7.84648 16.2016 7.84648 15.2453V11.7016C7.87461 10.7172 7.08711 9.92969 6.10273 9.92969ZM6.60898 15.2734C6.60898 15.5547 6.38398 15.7797 6.10273 15.7797H2.53086C2.24961 15.7797 2.02461 15.5547 2.02461 15.2734V11.7016C2.02461 11.4203 2.24961 11.1953 2.53086 11.1953H6.10273C6.38398 11.1953 6.60898 11.4203 6.60898 11.7016V15.2734Z" fill="#DEE4EE"/>
<path d="M15.468 9.92969H11.8961C10.9398 9.92969 10.1523 10.7172 10.1523 11.6734V15.2453C10.1523 16.2016 10.9398 16.9891 11.8961 16.9891H15.468C16.4242 16.9891 17.2117 16.2016 17.2117 15.2453V11.7016C17.2117 10.7172 16.4242 9.92969 15.468 9.92969ZM15.9742 15.2734C15.9742 15.5547 15.7492 15.7797 15.468 15.7797H11.8961C11.6148 15.7797 11.3898 15.5547 11.3898 15.2734V11.7016C11.3898 11.4203 11.6148 11.1953 11.8961 11.1953H15.468C15.7492 11.1953 15.9742 11.4203 15.9742 11.7016V15.2734Z" fill="#DEE4EE"/>
</svg>
