<svg width="18" height="22" viewBox="0 0 18 22" fill="none" xmlns="http://www.w3.org/2000/svg">
<path d="M14.1547 6.80614V5.91239C14.1547 3.16239 12.0922 0.824887 9.47969 0.618637C8.03594 0.481137 6.59219 0.996762 5.52656 1.95926C4.46094 2.92176 3.84219 4.29676 3.84219 5.70614V6.80614C1.84844 7.18426 0.335938 8.93739 0.335938 11.0686V17.2905C0.335938 19.5593 2.19219 21.3811 4.42656 21.3811H13.5016C15.7703 21.3811 17.6266 19.5249 17.6266 17.2561V10.9999C17.6609 8.93739 16.1484 7.21864 14.1547 6.80614ZM6.55781 3.09364C7.31406 2.40614 8.31094 2.06239 9.34219 2.16551C11.1641 2.33739 12.6078 3.98739 12.6078 5.91239V6.70301H5.38906V5.67176C5.38906 4.70926 5.80156 3.78114 6.55781 3.09364ZM16.1141 17.2905C16.1141 18.6999 14.9453 19.8686 13.5359 19.8686H4.46094C3.05156 19.8686 1.91719 18.7343 1.91719 17.3249V11.0686C1.91719 9.52176 3.15469 8.28426 4.70156 8.28426H13.2953C14.8422 8.28426 16.1141 9.52176 16.1141 10.9999V17.2905Z" fill="#64748B"/>
<path d="M8.99766 11.8594C8.58516 11.8594 8.20703 12.2031 8.20703 12.65V16.2594C8.20703 16.6719 8.55078 17.05 8.99766 17.05C9.41016 17.05 9.78828 16.7063 9.78828 16.2594V12.6156C9.78828 12.2031 9.41016 11.8594 8.99766 11.8594Z" fill="#64748B"/>
</svg>
