<svg width="22" height="16" viewBox="0 0 22 16" fill="none" xmlns="http://www.w3.org/2000/svg">
<path d="M19.2516 0.299805H2.75156C1.58281 0.299805 0.585938 1.2623 0.585938 2.46543V13.6029C0.585938 14.7717 1.54844 15.7686 2.75156 15.7686H19.2516C20.4203 15.7686 21.4172 14.8061 21.4172 13.6029V2.43105C21.4172 1.2623 20.4203 0.299805 19.2516 0.299805ZM19.2516 1.84668C19.2859 1.84668 19.3203 1.84668 19.3547 1.84668L11.0016 7.20918L2.64844 1.84668C2.68281 1.84668 2.71719 1.84668 2.75156 1.84668H19.2516ZM19.2516 14.1529H2.75156C2.40781 14.1529 2.13281 13.8779 2.13281 13.5342V3.35918L10.1766 8.51543C10.4172 8.6873 10.6922 8.75605 10.9672 8.75605C11.2422 8.75605 11.5172 8.6873 11.7578 8.51543L19.8016 3.35918V13.5686C19.8703 13.9123 19.5953 14.1529 19.2516 14.1529Z" fill="#64748B"/>
</svg>
