<svg width="14" height="18" viewBox="0 0 14 18" fill="none" xmlns="http://www.w3.org/2000/svg">
<path d="M13.8328 2.44824C13.8328 1.37949 12.9609 0.479492 11.8641 0.479492H2.13281C1.06406 0.479492 0.164062 1.35137 0.164062 2.44824V16.567C0.164062 16.792 0.304687 17.017 0.501562 17.1295C0.698437 17.242 0.951563 17.2139 1.14844 17.1014L2.55469 16.1732L4.43906 17.4107C4.66406 17.5514 4.91719 17.5514 5.14219 17.4107L6.99844 16.1732L8.85469 17.4107C8.96719 17.4951 9.07969 17.5232 9.19219 17.5232C9.30469 17.5232 9.44531 17.4951 9.52969 17.4107L11.3859 16.1732L12.7922 17.1295C12.9891 17.2701 13.2422 17.2701 13.4391 17.1576C13.6359 17.0451 13.7766 16.8201 13.7766 16.5951L13.8328 2.44824ZM12.0328 15.0482C11.6672 14.7951 11.1891 14.7951 10.8234 15.0482L9.22031 16.117L7.61719 15.0482C7.42031 14.9357 7.22344 14.8514 6.99844 14.8514C6.80156 14.8514 6.57656 14.9076 6.40781 15.0482L4.80469 16.117L3.20156 15.0482C2.83594 14.7951 2.35781 14.7951 1.99219 15.0482L1.45781 15.3857V2.44824C1.45781 2.05449 1.76719 1.74512 2.16094 1.74512H11.9203C12.3141 1.74512 12.6234 2.05449 12.6234 2.44824V15.3857L12.0328 15.0482Z" fill="#DEE4EE"/>
<path d="M5.92813 3.74121H3.50938C3.17188 3.74121 2.89062 4.02246 2.89062 4.35996C2.89062 4.69746 3.17188 4.97871 3.50938 4.97871H5.92813C6.26563 4.97871 6.54688 4.69746 6.54688 4.35996C6.54688 4.02246 6.26563 3.74121 5.92813 3.74121Z" fill="#DEE4EE"/>
<path d="M10.3445 3.74121H9.66953C9.33203 3.74121 9.05078 4.02246 9.05078 4.35996C9.05078 4.69746 9.33203 4.97871 9.66953 4.97871H10.3445C10.682 4.97871 10.9633 4.69746 10.9633 4.35996C10.9633 4.02246 10.682 3.74121 10.3445 3.74121Z" fill="#DEE4EE"/>
<path d="M3.50938 8.6916H5.05625C5.39375 8.6916 5.675 8.41035 5.675 8.07285C5.675 7.73535 5.39375 7.4541 5.05625 7.4541H3.50938C3.17188 7.4541 2.89062 7.73535 2.89062 8.07285C2.89062 8.41035 3.14375 8.6916 3.50938 8.6916Z" fill="#DEE4EE"/>
<path d="M10.3445 7.42676H9.66953C9.33203 7.42676 9.05078 7.70801 9.05078 8.04551C9.05078 8.38301 9.33203 8.66426 9.66953 8.66426H10.3445C10.682 8.66426 10.9633 8.38301 10.9633 8.04551C10.9633 7.70801 10.682 7.42676 10.3445 7.42676Z" fill="#DEE4EE"/>
<path d="M5.92813 11.083H3.50938C3.17188 11.083 2.89062 11.3643 2.89062 11.7018C2.89062 12.0393 3.17188 12.3205 3.50938 12.3205H5.92813C6.26563 12.3205 6.54688 12.0393 6.54688 11.7018C6.54688 11.3643 6.26563 11.083 5.92813 11.083Z" fill="#DEE4EE"/>
<path d="M10.3445 11.083H9.66953C9.33203 11.083 9.05078 11.3643 9.05078 11.7018C9.05078 12.0393 9.33203 12.3205 9.66953 12.3205H10.3445C10.682 12.3205 10.9633 12.0393 10.9633 11.7018C10.9633 11.3643 10.682 11.083 10.3445 11.083Z" fill="#DEE4EE"/>
</svg>
